<?xml version="1.0" encoding="utf-8"?>
<!-- Generator: Adobe Illustrator 16.0.0, SVG Export Plug-In . SVG Version: 6.00 Build 0)  -->
<!DOCTYPE svg PUBLIC "-//W3C//DTD SVG 1.1//EN" "http://www.w3.org/Graphics/SVG/1.1/DTD/svg11.dtd">
<svg version="1.1" id="Layer_1" xmlns="http://www.w3.org/2000/svg" xmlns:xlink="http://www.w3.org/1999/xlink" x="0px" y="0px"
	 width="841.89px" height="595.28px" viewBox="0 0 841.89 595.28" enable-background="new 0 0 841.89 595.28" xml:space="preserve">
<path fill="none" stroke="#0000FF" stroke-miterlimit="10" d="M453.551,355.944c0-15.651-12.689-28.346-28.347-28.346h-70.874
	l-14.171,13.745H141.732L128,327.599H56.693c-15.656,0-28.349,12.69-28.349,28.346v43.744l11.338,14.155v88.25l-11.337,13.752
	v24.346c0,15.654,12.689,28.348,28.349,28.348h368.513c15.653,0,28.346-12.69,28.346-28.348v-24.346l-11.338-13.752v-88.25
	l11.336-14.155V355.944z M375.478,366.856c3.133,0,5.669,2.539,5.669,5.67c0,3.134-2.536,5.673-5.669,5.673
	c-3.132,0-5.67-2.539-5.67-5.673C369.808,369.396,372.346,366.856,375.478,366.856z M106.42,366.856c3.132,0,5.67,2.539,5.67,5.67
	c0,3.134-2.538,5.673-5.67,5.673c-3.131,0-5.669-2.539-5.669-5.673C100.751,369.396,103.289,366.856,106.42,366.856z M55.51,557.649
	c-3.131,0-5.669-2.537-5.669-5.668c0-3.133,2.538-5.672,5.669-5.672s5.669,2.539,5.669,5.672
	C61.179,555.112,58.641,557.649,55.51,557.649z M55.51,353.654c-3.133,0-5.67-2.536-5.67-5.67c0-3.131,2.537-5.67,5.67-5.67
	c3.131,0,5.669,2.539,5.669,5.67C61.179,351.118,58.641,353.654,55.51,353.654z M106.42,529.279c-3.132,0-5.67-2.537-5.67-5.67
	c0-3.132,2.538-5.668,5.67-5.668s5.67,2.536,5.67,5.668C112.089,526.742,109.55,529.279,106.42,529.279z M375.477,529.279
	c-3.131,0-5.669-2.537-5.669-5.67c0-3.132,2.538-5.668,5.669-5.668c3.133,0,5.669,2.536,5.669,5.668
	C381.146,526.742,378.608,529.279,375.477,529.279z M166.885,426.789c0-15.652,13.077-21.795,28.733-21.795h60.634
	c15.655,0,30.133,6.688,30.133,22.342l0,0h9.553l-0.137-26.31h57.333l0.038,28.951H376.8l-0.078,67.332v3.25v7.166
	c0,0-1.229,4.334-6.062,4.334s-255.336,1.168-255.336,1.168s-4.83,0.166-4.83-5.5c0-5.082,0-32.139,0-37.668
	c0-0.639,0-1.004,0-1.004v-73.744l56.558,0.104L166.885,426.789z M432.768,557.649c-3.133,0-5.672-2.537-5.672-5.668
	c0-3.133,2.539-5.672,5.672-5.672c3.131,0,5.67,2.539,5.67,5.672C438.438,555.112,435.898,557.649,432.768,557.649z M432.77,353.654
	c-3.133,0-5.668-2.536-5.668-5.67c0-3.131,2.535-5.67,5.668-5.67s5.67,2.539,5.67,5.67
	C438.439,351.118,435.901,353.654,432.77,353.654z"/>
<path fill="none" stroke="#0000FF" stroke-miterlimit="10" d="M444.715,237.722v-88.25l11.336-14.155V91.573
	c0-15.651-12.689-28.346-28.348-28.346H356.83l-14.171,13.745H144.232L130.5,63.227H59.193c-15.656,0-28.349,12.69-28.349,28.346
	v43.744l11.338,14.155v88.25l-11.337,13.752v24.346c0,15.654,12.689,28.348,28.349,28.348h368.513
	c15.652,0,28.346-12.691,28.346-28.348v-24.346L444.715,237.722z M58.009,293.278c-3.131,0-5.669-2.537-5.669-5.668
	c0-3.133,2.538-5.672,5.669-5.672s5.669,2.539,5.669,5.672C63.678,290.741,61.14,293.278,58.009,293.278z M58.009,89.283
	c-3.133,0-5.67-2.536-5.67-5.67c0-3.131,2.537-5.67,5.67-5.67c3.131,0,5.669,2.539,5.669,5.67
	C63.678,86.747,61.14,89.283,58.009,89.283z M108.919,264.908c-3.132,0-5.67-2.537-5.67-5.67c0-3.132,2.538-5.668,5.67-5.668
	s5.67,2.536,5.67,5.668C114.588,262.371,112.049,264.908,108.919,264.908z M108.919,113.828c-3.131,0-5.669-2.539-5.669-5.673
	c0-3.131,2.538-5.67,5.669-5.67c3.132,0,5.67,2.539,5.67,5.67C114.589,111.289,112.051,113.828,108.919,113.828z M365,192.699
	c-5.137,0-9.302-4.164-9.302-9.302v-16.096c0-5.137,4.165-9.302,9.302-9.302c5.138,0,9.303,4.165,9.303,9.302v16.097
	C374.303,188.535,370.138,192.699,365,192.699z M377.976,264.908c-3.131,0-5.669-2.537-5.669-5.67c0-3.132,2.538-5.668,5.669-5.668
	c3.133,0,5.669,2.536,5.669,5.668C383.645,262.371,381.108,264.908,377.976,264.908z M377.977,113.828
	c-3.132,0-5.67-2.539-5.67-5.673c0-3.131,2.538-5.67,5.67-5.67c3.133,0,5.669,2.539,5.669,5.67
	C383.646,111.289,381.11,113.828,377.977,113.828z M435.268,293.278c-3.133,0-5.672-2.537-5.672-5.668
	c0-3.133,2.539-5.672,5.672-5.672c3.131,0,5.67,2.539,5.67,5.672C440.938,290.741,438.398,293.278,435.268,293.278z M435.27,89.283
	c-3.133,0-5.668-2.536-5.668-5.67c0-3.131,2.535-5.67,5.668-5.67s5.67,2.539,5.67,5.67C440.939,86.747,438.4,89.283,435.27,89.283z"
	/>
<path fill="none" stroke="#0000FF" stroke-miterlimit="10" d="M546.607,473.878h88.246l14.155,11.336h43.742
	c15.65,0,28.344-12.689,28.344-28.348v-70.873l-13.744-14.171V173.39l13.744-13.732V88.351c0-15.656-12.689-28.349-28.344-28.349
	h-43.742L634.854,71.34h-88.246l-13.751-11.337h-24.345c-15.653,0-28.346,12.689-28.346,28.349V456.87
	c0,15.652,12.69,28.346,28.346,28.346h24.345L546.607,473.878z M491.056,87.167c0-3.131,2.537-5.669,5.668-5.669
	c3.133,0,5.671,2.538,5.671,5.669s-2.538,5.669-5.671,5.669C493.593,92.836,491.056,90.298,491.056,87.167z M695.04,87.167
	c0-3.133,2.536-5.67,5.67-5.67c3.131,0,5.67,2.537,5.67,5.67c0,3.131-2.539,5.669-5.67,5.669
	C697.576,92.836,695.04,90.298,695.04,87.167z M519.424,138.077c0-3.132,2.537-5.67,5.669-5.67c3.133,0,5.668,2.538,5.668,5.67
	s-2.535,5.67-5.668,5.67C521.961,143.746,519.424,141.207,519.424,138.077z M670.496,138.077c0-3.131,2.539-5.669,5.674-5.669
	c3.131,0,5.67,2.538,5.67,5.669c0,3.132-2.539,5.67-5.67,5.67C673.035,143.747,670.496,141.209,670.496,138.077z M591.629,394.163
	c0-5.137,4.164-9.302,9.302-9.302h16.095c5.136,0,9.301,4.165,9.301,9.302c0,5.138-4.165,9.303-9.301,9.303H600.93
	C595.793,403.466,591.629,399.301,591.629,394.163z M519.424,407.14c0-3.131,2.537-5.67,5.669-5.67c3.133,0,5.668,2.539,5.668,5.67
	c0,3.133-2.535,5.668-5.668,5.668C521.961,412.808,519.424,410.271,519.424,407.14z M670.496,407.14c0-3.131,2.539-5.67,5.674-5.67
	c3.131,0,5.67,2.539,5.67,5.67c0,3.133-2.539,5.67-5.67,5.67C673.035,412.81,670.496,410.272,670.496,407.14z M491.056,464.431
	c0-3.133,2.537-5.672,5.668-5.672c3.133,0,5.671,2.539,5.671,5.672c0,3.131-2.538,5.67-5.671,5.67
	C493.593,470.101,491.056,467.562,491.056,464.431z M695.04,464.433c0-3.133,2.536-5.668,5.67-5.668c3.131,0,5.67,2.535,5.67,5.668
	s-2.539,5.67-5.67,5.67C697.576,470.103,695.04,467.563,695.04,464.433z"/>
</svg>
