<?xml version="1.0" encoding="utf-8"?>
<!-- Generator: Adobe Illustrator 16.0.0, SVG Export Plug-In . SVG Version: 6.00 Build 0)  -->
<!DOCTYPE svg PUBLIC "-//W3C//DTD SVG 1.1//EN" "http://www.w3.org/Graphics/SVG/1.1/DTD/svg11.dtd">
<svg version="1.1" id="Layer_1" xmlns="http://www.w3.org/2000/svg" xmlns:xlink="http://www.w3.org/1999/xlink" x="0px" y="0px"
	 width="1403.15px" height="977.95px" viewBox="0 0 1403.15 977.95" enable-background="new 0 0 1403.15 977.95"
	 xml:space="preserve">
<path fill="none" stroke="#FF0000" stroke-width="0.0283" stroke-miterlimit="10" d="M147.105,74.261
	c0-15.652,13.077-21.795,28.733-21.795h60.637c15.662,0,30.14,6.688,30.14,22.342l0,0h9.553l-0.137-26.31h57.333l0.038,28.951
	h23.628l-0.078,67.331v3.25v7.166c0,0-1.229,4.334-6.062,4.334s-255.346,1.168-255.346,1.168s-4.83,0.166-4.83-5.5
	c0-5.082,0-32.139,0-37.668c0-0.639,0-1.004,0-1.004V42.783l56.558,0.104L147.105,74.261z"/>
<path fill="none" stroke="#FF0000" stroke-width="0.0283" stroke-miterlimit="10" d="M393.758,137.841
	c0,31.311-25.382,56.693-56.692,56.693H92.662c-31.311,0-56.693-25.383-56.693-56.693V65.642c0-31.311,25.382-56.692,56.693-56.692
	h244.404c31.311,0,56.692,25.382,56.692,56.692V137.841z"/>
<path fill="none" stroke="#FF0000" stroke-width="0.0283" stroke-miterlimit="10" d="M514.9,74.261
	c0-15.652,13.077-21.795,28.733-21.795h60.637c15.662,0,30.14,6.688,30.14,22.342l0,0h9.553l-0.137-26.31h57.333l0.038,28.951
	h23.627l-0.078,67.331v3.25v7.166c0,0-1.229,4.334-6.062,4.334s-255.345,1.168-255.345,1.168s-4.83,0.166-4.83-5.5
	c0-5.082,0-32.139,0-37.668c0-0.639,0-1.004,0-1.004V42.783l56.558,0.104L514.9,74.261z"/>
<path fill="none" stroke="#FF0000" stroke-width="0.0283" stroke-miterlimit="10" d="M761.554,137.841
	c0,31.311-25.382,56.693-56.692,56.693H460.458c-31.311,0-56.693-25.383-56.693-56.693V65.642c0-31.311,25.382-56.692,56.693-56.692
	h244.404c31.311,0,56.692,25.382,56.692,56.692V137.841z"/>
<path fill="none" stroke="#FF0000" stroke-width="0.0283" stroke-miterlimit="10" d="M883.384,74.26
	c0-15.652,13.077-21.795,28.733-21.795h60.637c15.662,0,30.14,6.688,30.14,22.342l0,0h9.553l-0.137-26.31h57.333l0.038,28.951
	h23.628l-0.078,67.331v3.25v7.166c0,0-1.229,4.334-6.062,4.334s-255.346,1.168-255.346,1.168s-4.83,0.166-4.83-5.5
	c0-5.082,0-32.139,0-37.668c0-0.639,0-1.004,0-1.004V42.783l56.558,0.104L883.384,74.26z"/>
<path fill="none" stroke="#FF0000" stroke-width="0.0283" stroke-miterlimit="10" d="M1130.037,137.84
	c0,31.311-25.382,56.693-56.692,56.693H828.941c-31.311,0-56.693-25.383-56.693-56.693V65.641c0-31.311,25.383-56.692,56.693-56.692
	h244.403c31.311,0,56.692,25.382,56.692,56.692V137.84z"/>
<path fill="none" stroke="#FF0000" stroke-width="0.0283" stroke-miterlimit="10" d="M1209.069,258.603
	c-15.652,0-21.795-13.078-21.795-28.734v-60.637c0-15.662,6.688-30.139,22.342-30.139l0,0v-9.553l-26.31,0.137V72.343l28.951-0.037
	V48.677l67.331,0.078h3.25h7.166c0,0,4.334,1.23,4.334,6.062c0,4.834,1.168,255.346,1.168,255.346s0.166,4.83-5.5,4.83
	c-5.082,0-32.139,0-37.668,0c-0.639,0-1.004,0-1.004,0h-73.743l0.104-56.557L1209.069,258.603z"/>
<path fill="none" stroke="#FF0000" stroke-width="0.0283" stroke-miterlimit="10" d="M1272.649,8.948
	c31.311,0,56.693,25.382,56.693,56.692v244.403c0,31.311-25.383,56.692-56.693,56.692h-72.199
	c-31.311,0-56.692-25.382-56.692-56.692V65.641c0-31.311,25.382-56.692,56.692-56.692H1272.649z"/>
<path fill="none" stroke="#FF0000" stroke-width="0.0283" stroke-miterlimit="10" d="M146.762,269.09
	c0-15.652,13.077-21.795,28.733-21.795h60.637c15.662,0,30.14,6.688,30.14,22.342l0,0h9.553l-0.137-26.31h57.333l0.038,28.951
	h23.628l-0.078,67.331v3.25v7.166c0,0-1.229,4.334-6.062,4.334s-255.346,1.168-255.346,1.168s-4.83,0.166-4.83-5.5
	c0-5.082,0-32.139,0-37.668c0-0.639,0-1.004,0-1.004v-73.743l56.558,0.104L146.762,269.09z"/>
<path fill="none" stroke="#FF0000" stroke-width="0.0283" stroke-miterlimit="10" d="M393.416,332.67
	c0,31.311-25.382,56.693-56.692,56.693H92.319c-31.311,0-56.693-25.383-56.693-56.693v-72.199c0-31.311,25.382-56.692,56.693-56.692
	h244.404c31.311,0,56.692,25.382,56.692,56.692V332.67z"/>
<path fill="none" stroke="#FF0000" stroke-width="0.0283" stroke-miterlimit="10" d="M514.558,269.09
	c0-15.652,13.077-21.795,28.733-21.795h60.637c15.662,0,30.14,6.688,30.14,22.342l0,0h9.553l-0.137-26.31h57.333l0.038,28.951
	h23.627l-0.078,67.331v3.25v7.166c0,0-1.229,4.334-6.062,4.334s-255.345,1.168-255.345,1.168s-4.83,0.166-4.83-5.5
	c0-5.082,0-32.139,0-37.668c0-0.639,0-1.004,0-1.004v-73.743l56.558,0.104L514.558,269.09z"/>
<path fill="none" stroke="#FF0000" stroke-width="0.0283" stroke-miterlimit="10" d="M761.211,332.67
	c0,31.311-25.382,56.693-56.692,56.693H460.115c-31.311,0-56.693-25.383-56.693-56.693v-72.199
	c0-31.311,25.382-56.692,56.693-56.692h244.404c31.311,0,56.692,25.382,56.692,56.692V332.67z"/>
<path fill="none" stroke="#FF0000" stroke-width="0.0283" stroke-miterlimit="10" d="M883.039,269.089
	c0-15.652,13.076-21.795,28.732-21.795h60.637c15.662,0,30.141,6.688,30.141,22.342l0,0h9.553l-0.137-26.31h57.332l0.039,28.951
	h23.627l-0.078,67.331v3.25v7.166c0,0-1.229,4.334-6.062,4.334c-4.832,0-255.344,1.168-255.344,1.168s-4.83,0.166-4.83-5.5
	c0-5.082,0-32.139,0-37.668c0-0.639,0-1.004,0-1.004v-73.743l56.557,0.104L883.039,269.089z"/>
<path fill="none" stroke="#FF0000" stroke-width="0.0283" stroke-miterlimit="10" d="M1129.691,332.669
	c0,31.311-25.381,56.693-56.691,56.693H828.598c-31.31,0-56.692-25.383-56.692-56.693V260.47c0-31.311,25.383-56.692,56.692-56.692
	H1073c31.311,0,56.691,25.382,56.691,56.692V332.669z"/>
<path fill="none" stroke="#FF0000" stroke-width="0.0283" stroke-miterlimit="10" d="M145.589,464.163
	c0-15.652,13.077-21.795,28.733-21.795h60.637c15.662,0,30.14,6.688,30.14,22.342l0,0h9.553l-0.137-26.31h57.333l0.038,28.951
	h23.628l-0.078,67.325v3.25v7.166c0,0-1.229,4.334-6.062,4.334s-255.346,1.168-255.346,1.168s-4.83,0.166-4.83-5.5
	c0-5.082,0-32.139,0-37.668c0-0.639,0-1.004,0-1.004v-73.737l56.558,0.104L145.589,464.163z"/>
<path fill="none" stroke="#FF0000" stroke-width="0.0283" stroke-miterlimit="10" d="M392.243,527.737
	c0,31.311-25.382,56.693-56.692,56.693H91.146c-31.311,0-56.693-25.383-56.693-56.693v-72.193c0-31.311,25.382-56.692,56.693-56.692
	H335.55c31.311,0,56.692,25.382,56.692,56.692V527.737z"/>
<path fill="none" stroke="#FF0000" stroke-width="0.0283" stroke-miterlimit="10" d="M513.385,464.163
	c0-15.652,13.077-21.795,28.733-21.795h60.637c15.662,0,30.14,6.688,30.14,22.342l0,0h9.553l-0.137-26.31h57.333l0.038,28.951
	h23.627l-0.078,67.325v3.25v7.166c0,0-1.229,4.334-6.062,4.334s-255.345,1.168-255.345,1.168s-4.83,0.166-4.83-5.5
	c0-5.082,0-32.139,0-37.668c0-0.639,0-1.004,0-1.004v-73.737l56.558,0.104L513.385,464.163z"/>
<path fill="none" stroke="#FF0000" stroke-width="0.0283" stroke-miterlimit="10" d="M760.038,527.737
	c0,31.311-25.382,56.693-56.692,56.693H458.942c-31.311,0-56.693-25.383-56.693-56.693v-72.193
	c0-31.311,25.382-56.692,56.693-56.692h244.404c31.311,0,56.692,25.382,56.692,56.692V527.737z"/>
<path fill="none" stroke="#FF0000" stroke-width="0.0283" stroke-miterlimit="10" d="M881.868,464.163
	c0-15.652,13.077-21.795,28.733-21.795h60.637c15.662,0,30.14,6.688,30.14,22.342l0,0h9.553l-0.137-26.31h57.333l0.038,28.951
	h23.628l-0.078,67.326v3.25v7.166c0,0-1.229,4.334-6.062,4.334s-255.346,1.168-255.346,1.168s-4.83,0.166-4.83-5.5
	c0-5.082,0-32.139,0-37.668c0-0.639,0-1.004,0-1.004v-73.738l56.558,0.104L881.868,464.163z"/>
<path fill="none" stroke="#FF0000" stroke-width="0.0283" stroke-miterlimit="10" d="M1128.521,527.737
	c0,31.311-25.382,56.693-56.692,56.693H827.426c-31.311,0-56.693-25.383-56.693-56.693v-72.194
	c0-31.311,25.383-56.692,56.693-56.692h244.403c31.311,0,56.692,25.382,56.692,56.692V527.737z"/>
<path fill="none" stroke="#FF0000" stroke-width="0.0283" stroke-miterlimit="10" d="M145.247,657.984
	c0-15.652,13.077-21.795,28.733-21.795h60.637c15.662,0,30.14,6.688,30.14,22.342l0,0h9.553l-0.137-26.31h57.333l0.038,28.951
	h23.628l-0.078,67.331v3.25v7.167c0,0-1.229,4.334-6.062,4.334s-255.346,1.168-255.346,1.168s-4.83,0.166-4.83-5.5
	c0-5.083,0-32.14,0-37.669c0-0.639,0-1.004,0-1.004v-73.743l56.558,0.104L145.247,657.984z"/>
<path fill="none" stroke="#FF0000" stroke-width="0.0283" stroke-miterlimit="10" d="M391.9,721.564
	c0,31.312-25.382,56.694-56.692,56.694H90.804c-31.311,0-56.693-25.383-56.693-56.694v-72.199c0-31.311,25.382-56.692,56.693-56.692
	h244.404c31.311,0,56.692,25.382,56.692,56.692V721.564z"/>
<path fill="none" stroke="#FF0000" stroke-width="0.0283" stroke-miterlimit="10" d="M513.042,657.984
	c0-15.652,13.077-21.795,28.733-21.795h60.637c15.662,0,30.14,6.688,30.14,22.342l0,0h9.553l-0.137-26.31h57.333l0.038,28.951
	h23.627l-0.078,67.331v3.25v7.167c0,0-1.229,4.334-6.062,4.334s-255.345,1.168-255.345,1.168s-4.83,0.166-4.83-5.5
	c0-5.083,0-32.14,0-37.669c0-0.639,0-1.004,0-1.004v-73.743l56.558,0.104L513.042,657.984z"/>
<path fill="none" stroke="#FF0000" stroke-width="0.0283" stroke-miterlimit="10" d="M759.695,721.564
	c0,31.312-25.382,56.694-56.692,56.694H458.599c-31.311,0-56.693-25.383-56.693-56.694v-72.199
	c0-31.311,25.382-56.692,56.693-56.692h244.404c31.311,0,56.692,25.382,56.692,56.692V721.564z"/>
<path fill="none" stroke="#FF0000" stroke-width="0.0283" stroke-miterlimit="10" d="M881.523,657.983
	c0-15.652,13.076-21.795,28.732-21.795h60.637c15.662,0,30.141,6.688,30.141,22.342l0,0h9.553l-0.137-26.309h57.332l0.039,28.951
	h23.627l-0.078,67.33v3.25v7.166c0,0-1.229,4.334-6.062,4.334c-4.832,0-255.344,1.168-255.344,1.168s-4.83,0.166-4.83-5.5
	c0-5.082,0-32.139,0-37.668c0-0.639,0-1.004,0-1.004v-73.742l56.557,0.104L881.523,657.983z"/>
<path fill="none" stroke="#FF0000" stroke-width="0.0283" stroke-miterlimit="10" d="M1128.176,721.563
	c0,31.311-25.381,56.693-56.691,56.693H827.082c-31.31,0-56.692-25.383-56.692-56.693v-72.199c0-31.311,25.383-56.691,56.692-56.691
	h244.402c31.311,0,56.691,25.381,56.691,56.691V721.563z"/>
<path fill="none" stroke="#FF0000" stroke-width="0.0283" stroke-miterlimit="10" d="M145.249,849.572
	c0-15.651,13.077-21.794,28.733-21.794h60.637c15.662,0,30.14,6.688,30.14,22.341l0,0h9.553l-0.137-26.309h57.333l0.038,28.95
	h23.628l-0.078,67.331v3.25v7.167c0,0-1.229,4.334-6.062,4.334s-255.346,1.168-255.346,1.168s-4.83,0.166-4.83-5.5
	c0-5.083,0-32.14,0-37.669c0-0.639,0-1.004,0-1.004v-73.742l56.558,0.104L145.249,849.572z"/>
<path fill="none" stroke="#FF0000" stroke-width="0.0283" stroke-miterlimit="10" d="M391.902,913.152
	c0,31.312-25.382,56.694-56.692,56.694H90.806c-31.311,0-56.693-25.383-56.693-56.694v-72.199c0-31.309,25.382-56.689,56.693-56.689
	H335.21c31.311,0,56.692,25.381,56.692,56.689V913.152z"/>
<path fill="none" stroke="#FF0000" stroke-width="0.0283" stroke-miterlimit="10" d="M513.044,849.572
	c0-15.651,13.077-21.794,28.733-21.794h60.637c15.662,0,30.14,6.688,30.14,22.341l0,0h9.553l-0.137-26.309h57.332l0.038,28.95
	h23.626l-0.078,67.331v3.25v7.167c0,0-1.23,4.334-6.062,4.334c-4.834,0-255.343,1.168-255.343,1.168s-4.83,0.166-4.83-5.5
	c0-5.083,0-32.14,0-37.669c0-0.639,0-1.004,0-1.004v-73.742l56.558,0.104L513.044,849.572z"/>
<path fill="none" stroke="#FF0000" stroke-width="0.0283" stroke-miterlimit="10" d="M759.695,913.152
	c0,31.312-25.383,56.694-56.691,56.694H458.602c-31.311,0-56.693-25.383-56.693-56.694v-72.199
	c0-31.309,25.382-56.689,56.693-56.689h244.402c31.309,0,56.691,25.381,56.691,56.689V913.152z"/>
<path fill="none" stroke="#FF0000" stroke-width="0.0283" stroke-miterlimit="10" d="M881.523,849.571
	c0-15.651,13.076-21.794,28.732-21.794h60.637c15.662,0,30.141,6.688,30.141,22.341l0,0h9.553l-0.137-26.308h57.332l0.039,28.95
	h23.627l-0.078,67.33v3.25v7.166c0,0-1.229,4.334-6.062,4.334c-4.832,0-255.344,1.168-255.344,1.168s-4.83,0.166-4.83-5.5
	c0-5.082,0-32.139,0-37.668c0-0.639,0-1.004,0-1.004v-73.741l56.557,0.104L881.523,849.571z"/>
<path fill="none" stroke="#FF0000" stroke-width="0.0283" stroke-miterlimit="10" d="M1128.176,913.151
	c0,31.311-25.381,56.693-56.691,56.693H827.082c-31.311,0-56.693-25.383-56.693-56.693v-72.199
	c0-31.309,25.383-56.688,56.693-56.688h244.402c31.311,0,56.691,25.38,56.691,56.688V913.151z"/>
<path fill="none" stroke="#FF0000" stroke-width="0.0283" stroke-miterlimit="10" d="M1209.068,628.1
	c-15.652,0-21.795-13.078-21.795-28.734v-60.638c0-15.662,6.688-30.139,22.342-30.139l0,0v-9.553l-26.31,0.137v-57.334l28.951-0.037
	v-23.629l67.331,0.078h3.25h7.166c0,0,4.334,1.23,4.334,6.062c0,4.834,1.168,255.347,1.168,255.347s0.166,4.83-5.5,4.83
	c-5.082,0-32.139,0-37.668,0c-0.639,0-1.004,0-1.004,0h-73.743l0.104-56.557L1209.068,628.1z"/>
<path fill="none" stroke="#FF0000" stroke-width="0.0283" stroke-miterlimit="10" d="M1272.648,378.444
	c31.311,0,56.693,25.382,56.693,56.692v244.403c0,31.311-25.383,56.693-56.693,56.693h-72.199
	c-31.311,0-56.692-25.383-56.692-56.693V435.136c0-31.311,25.382-56.692,56.692-56.692H1272.648z"/>
</svg>
