%TF.GenerationSoftware,KiCad,Pcbnew,5.1.6+dfsg1-1*%
%TF.CreationDate,2020-09-16T13:14:45+02:00*%
%TF.ProjectId,esp-wireless-charging,6573702d-7769-4726-956c-6573732d6368,rev?*%
%TF.SameCoordinates,Original*%
%TF.FileFunction,Legend,Top*%
%TF.FilePolarity,Positive*%
%FSLAX46Y46*%
G04 Gerber Fmt 4.6, Leading zero omitted, Abs format (unit mm)*
G04 Created by KiCad (PCBNEW 5.1.6+dfsg1-1) date 2020-09-16 13:14:45*
%MOMM*%
%LPD*%
G01*
G04 APERTURE LIST*
%ADD10C,0.120000*%
%ADD11C,0.150000*%
G04 APERTURE END LIST*
D10*
%TO.C,J1*%
X182940000Y-60900000D02*
X180280000Y-60900000D01*
X182940000Y-63500000D02*
X182940000Y-60900000D01*
X180280000Y-63500000D02*
X180280000Y-60900000D01*
X182940000Y-63500000D02*
X180280000Y-63500000D01*
X182940000Y-64770000D02*
X182940000Y-66100000D01*
X182940000Y-66100000D02*
X181610000Y-66100000D01*
%TO.C,U1*%
X94750000Y-47570000D02*
X110990000Y-47570000D01*
X110990000Y-47570000D02*
X110990000Y-55190000D01*
X110990000Y-71190000D02*
X110990000Y-71810000D01*
X110990000Y-71810000D02*
X108870000Y-71810000D01*
X96870000Y-71810000D02*
X94750000Y-71810000D01*
X94750000Y-71810000D02*
X94750000Y-71190000D01*
X94750000Y-55190000D02*
X94750000Y-47570000D01*
X94750000Y-55190000D02*
X94140000Y-55190000D01*
%TO.C,U2*%
X104780000Y-83420000D02*
X104780000Y-82160000D01*
X104780000Y-76600000D02*
X104780000Y-77860000D01*
X101020000Y-83420000D02*
X104780000Y-83420000D01*
X98770000Y-76600000D02*
X104780000Y-76600000D01*
%TO.C,J1*%
D11*
X181276666Y-66552380D02*
X181276666Y-67266666D01*
X181229047Y-67409523D01*
X181133809Y-67504761D01*
X180990952Y-67552380D01*
X180895714Y-67552380D01*
X182276666Y-67552380D02*
X181705238Y-67552380D01*
X181990952Y-67552380D02*
X181990952Y-66552380D01*
X181895714Y-66695238D01*
X181800476Y-66790476D01*
X181705238Y-66838095D01*
%TO.C,U1*%
X91548095Y-53882380D02*
X91548095Y-54691904D01*
X91595714Y-54787142D01*
X91643333Y-54834761D01*
X91738571Y-54882380D01*
X91929047Y-54882380D01*
X92024285Y-54834761D01*
X92071904Y-54787142D01*
X92119523Y-54691904D01*
X92119523Y-53882380D01*
X93119523Y-54882380D02*
X92548095Y-54882380D01*
X92833809Y-54882380D02*
X92833809Y-53882380D01*
X92738571Y-54025238D01*
X92643333Y-54120476D01*
X92548095Y-54168095D01*
%TO.C,U2*%
X102108095Y-74962380D02*
X102108095Y-75771904D01*
X102155714Y-75867142D01*
X102203333Y-75914761D01*
X102298571Y-75962380D01*
X102489047Y-75962380D01*
X102584285Y-75914761D01*
X102631904Y-75867142D01*
X102679523Y-75771904D01*
X102679523Y-74962380D01*
X103108095Y-75057619D02*
X103155714Y-75010000D01*
X103250952Y-74962380D01*
X103489047Y-74962380D01*
X103584285Y-75010000D01*
X103631904Y-75057619D01*
X103679523Y-75152857D01*
X103679523Y-75248095D01*
X103631904Y-75390952D01*
X103060476Y-75962380D01*
X103679523Y-75962380D01*
%TD*%
M02*
