%TF.GenerationSoftware,KiCad,Pcbnew,5.1.6+dfsg1-1*%
%TF.CreationDate,2020-09-16T13:14:45+02:00*%
%TF.ProjectId,esp-wireless-charging,6573702d-7769-4726-956c-6573732d6368,rev?*%
%TF.SameCoordinates,Original*%
%TF.FileFunction,Profile,NP*%
%FSLAX46Y46*%
G04 Gerber Fmt 4.6, Leading zero omitted, Abs format (unit mm)*
G04 Created by KiCad (PCBNEW 5.1.6+dfsg1-1) date 2020-09-16 13:14:45*
%MOMM*%
%LPD*%
G01*
G04 APERTURE LIST*
%TA.AperFunction,Profile*%
%ADD10C,0.100000*%
%TD*%
G04 APERTURE END LIST*
D10*
%TO.C,Ref\u002A\u002A*%
X186783000Y-83404300D02*
X186783000Y-83404300D01*
X186783000Y-59032000D02*
X186783000Y-83404300D01*
X178967000Y-59032000D02*
X186783000Y-59032000D01*
X178966000Y-71566500D02*
X178967000Y-59032000D01*
X182640000Y-71566500D02*
X178966000Y-71566500D01*
X182640000Y-82882100D02*
X182640000Y-71566500D01*
X182626000Y-83041200D02*
X182640000Y-82882100D01*
X182583000Y-83191900D02*
X182626000Y-83041200D01*
X182519000Y-83333800D02*
X182583000Y-83191900D01*
X182433000Y-83466900D02*
X182519000Y-83333800D01*
X182222000Y-83705200D02*
X182433000Y-83466900D01*
X181977000Y-83904800D02*
X182222000Y-83705200D01*
X181734000Y-84063600D02*
X181977000Y-83904800D01*
X181522000Y-84179600D02*
X181734000Y-84063600D01*
X181315000Y-84274700D02*
X181522000Y-84179600D01*
X114818300Y-84388700D02*
X181315000Y-84274700D01*
X114521000Y-84373100D02*
X114818300Y-84388700D01*
X114249900Y-84328900D02*
X114521000Y-84373100D01*
X114004100Y-84260200D02*
X114249900Y-84328900D01*
X113782600Y-84171200D02*
X114004100Y-84260200D01*
X113584300Y-84065800D02*
X113782600Y-84171200D01*
X113408400Y-83948200D02*
X113584300Y-84065800D01*
X113254000Y-83822300D02*
X113408400Y-83948200D01*
X113119800Y-83692400D02*
X113254000Y-83822300D01*
X112908800Y-83436700D02*
X113119800Y-83692400D01*
X112767700Y-83213700D02*
X112908800Y-83436700D01*
X112664100Y-82996100D02*
X112767700Y-83213700D01*
X112626300Y-74846500D02*
X112664100Y-82996100D01*
X112580400Y-64822400D02*
X112626300Y-74846500D01*
X112386100Y-46760000D02*
X112580400Y-64822400D01*
X93653500Y-46760000D02*
X112386100Y-46760000D01*
X93653500Y-72435500D02*
X93653500Y-46760000D01*
X93653500Y-72785100D02*
X93653500Y-72435500D01*
X93653500Y-85900300D02*
X93653500Y-72785100D01*
X93671500Y-86246900D02*
X93653500Y-85900300D01*
X93722200Y-86549000D02*
X93671500Y-86246900D01*
X93801200Y-86809600D02*
X93722200Y-86549000D01*
X93903500Y-87031800D02*
X93801200Y-86809600D01*
X94024700Y-87218600D02*
X93903500Y-87031800D01*
X94159900Y-87373100D02*
X94024700Y-87218600D01*
X94304500Y-87498400D02*
X94159900Y-87373100D01*
X94453800Y-87597500D02*
X94304500Y-87498400D01*
X94603100Y-87673500D02*
X94453800Y-87597500D01*
X94747700Y-87729500D02*
X94603100Y-87673500D01*
X95004100Y-87793500D02*
X94747700Y-87729500D01*
X95185400Y-87813900D02*
X95004100Y-87793500D01*
X95254200Y-87815200D02*
X95185400Y-87813900D01*
X184850000Y-87408500D02*
X95254200Y-87815200D01*
X185135000Y-87391600D02*
X184850000Y-87408500D01*
X185393000Y-87343700D02*
X185135000Y-87391600D01*
X185624000Y-87269300D02*
X185393000Y-87343700D01*
X185828000Y-87172800D02*
X185624000Y-87269300D01*
X186009000Y-87058500D02*
X185828000Y-87172800D01*
X186166000Y-86931200D02*
X186009000Y-87058500D01*
X186301000Y-86794800D02*
X186166000Y-86931200D01*
X186418000Y-86654000D02*
X186301000Y-86794800D01*
X186594000Y-86377100D02*
X186418000Y-86654000D01*
X186706000Y-86135400D02*
X186594000Y-86377100D01*
X186783000Y-85899600D02*
X186706000Y-86135400D01*
X186783000Y-83404300D02*
X186783000Y-85899600D01*
%TD*%
M02*
