%FSLAX45Y45*%
G04 Gerber Fmt 4.5, Leading zero omitted, Abs format (unit mm)*
G04 Created by KiCad (PCBNEW (5.1.12-1-10_14)) date 2022-08-29 01:00:31*
%MOMM*%
%LPD*%
G01*
G04 APERTURE LIST*
%TA.AperFunction,Profile*%
%ADD10C,0.050000*%
%TD*%
%ADD11C,0.200000*%
%ADD12C,0.300000*%
G04 APERTURE END LIST*
D10*
X8500000Y-4675000D02*
X11250000Y-4675000D01*
X9577500Y-4675000D02*
X9590000Y-4675000D01*
X9210000Y-4675000D02*
X9577500Y-4675000D01*
X9050000Y-4675000D02*
X8875000Y-4675000D01*
X11250000Y-4675000D02*
X9050000Y-4675000D01*
X11250000Y-8425000D02*
X11250000Y-4675000D01*
X18275000Y-8425000D02*
X11250000Y-8425000D01*
X18264000Y-7156650D02*
X18275000Y-8425000D01*
X17896600Y-7156650D02*
X18264000Y-7156650D01*
X17896700Y-5903200D02*
X17896600Y-7156650D01*
X18678300Y-5903200D02*
X17896700Y-5903200D01*
X18675000Y-8750000D02*
X18678300Y-5903200D01*
X8500000Y-8775000D02*
X18675000Y-8750000D01*
X8500000Y-4675000D02*
X8500000Y-8775000D01*
X9365350Y-4676000D02*
X8500000Y-4675000D01*
D11*
D12*
X8783928Y-9243214D02*
X8783928Y-8943214D01*
X8855357Y-8943214D01*
X8898214Y-8957500D01*
X8926786Y-8986072D01*
X8941071Y-9014643D01*
X8955357Y-9071786D01*
X8955357Y-9114643D01*
X8941071Y-9171786D01*
X8926786Y-9200357D01*
X8898214Y-9228929D01*
X8855357Y-9243214D01*
X8783928Y-9243214D01*
X9083928Y-9243214D02*
X9083928Y-9043214D01*
X9083928Y-9100357D02*
X9098214Y-9071786D01*
X9112500Y-9057500D01*
X9141071Y-9043214D01*
X9169643Y-9043214D01*
X9269643Y-9243214D02*
X9269643Y-9043214D01*
X9269643Y-8943214D02*
X9255357Y-8957500D01*
X9269643Y-8971786D01*
X9283928Y-8957500D01*
X9269643Y-8943214D01*
X9269643Y-8971786D01*
X9455357Y-9243214D02*
X9426786Y-9228929D01*
X9412500Y-9200357D01*
X9412500Y-8943214D01*
X9612500Y-9243214D02*
X9583928Y-9228929D01*
X9569643Y-9200357D01*
X9569643Y-8943214D01*
X9955357Y-9243214D02*
X9955357Y-8943214D01*
X10055357Y-9157500D01*
X10155357Y-8943214D01*
X10155357Y-9243214D01*
X10426786Y-9243214D02*
X10426786Y-9086072D01*
X10412500Y-9057500D01*
X10383928Y-9043214D01*
X10326786Y-9043214D01*
X10298214Y-9057500D01*
X10426786Y-9228929D02*
X10398214Y-9243214D01*
X10326786Y-9243214D01*
X10298214Y-9228929D01*
X10283928Y-9200357D01*
X10283928Y-9171786D01*
X10298214Y-9143214D01*
X10326786Y-9128929D01*
X10398214Y-9128929D01*
X10426786Y-9114643D01*
X10569643Y-9043214D02*
X10569643Y-9343214D01*
X10569643Y-9057500D02*
X10598214Y-9043214D01*
X10655357Y-9043214D01*
X10683928Y-9057500D01*
X10698214Y-9071786D01*
X10712500Y-9100357D01*
X10712500Y-9186072D01*
X10698214Y-9214643D01*
X10683928Y-9228929D01*
X10655357Y-9243214D01*
X10598214Y-9243214D01*
X10569643Y-9228929D01*
X10841071Y-9214643D02*
X10855357Y-9228929D01*
X10841071Y-9243214D01*
X10826786Y-9228929D01*
X10841071Y-9214643D01*
X10841071Y-9243214D01*
X10841071Y-9057500D02*
X10855357Y-9071786D01*
X10841071Y-9086072D01*
X10826786Y-9071786D01*
X10841071Y-9057500D01*
X10841071Y-9086072D01*
M02*
