%TF.GenerationSoftware,KiCad,Pcbnew,(5.1.12-1-10_14)*%
%TF.CreationDate,2022-08-29T01:00:24+02:00*%
%TF.ProjectId,esp-wireless-charging,6573702d-7769-4726-956c-6573732d6368,rev?*%
%TF.SameCoordinates,Original*%
%TF.FileFunction,Soldermask,Top*%
%TF.FilePolarity,Negative*%
%FSLAX46Y46*%
G04 Gerber Fmt 4.6, Leading zero omitted, Abs format (unit mm)*
G04 Created by KiCad (PCBNEW (5.1.12-1-10_14)) date 2022-08-29 01:00:24*
%MOMM*%
%LPD*%
G01*
G04 APERTURE LIST*
%ADD10O,1.800000X1.800000*%
G04 APERTURE END LIST*
%TO.C,U1*%
G36*
G01*
X93970000Y-56690000D02*
X93970000Y-55690000D01*
G75*
G02*
X94020000Y-55640000I50000J0D01*
G01*
X96520000Y-55640000D01*
G75*
G02*
X96570000Y-55690000I0J-50000D01*
G01*
X96570000Y-56690000D01*
G75*
G02*
X96520000Y-56740000I-50000J0D01*
G01*
X94020000Y-56740000D01*
G75*
G02*
X93970000Y-56690000I0J50000D01*
G01*
G37*
G36*
G01*
X93970000Y-58690000D02*
X93970000Y-57690000D01*
G75*
G02*
X94020000Y-57640000I50000J0D01*
G01*
X96520000Y-57640000D01*
G75*
G02*
X96570000Y-57690000I0J-50000D01*
G01*
X96570000Y-58690000D01*
G75*
G02*
X96520000Y-58740000I-50000J0D01*
G01*
X94020000Y-58740000D01*
G75*
G02*
X93970000Y-58690000I0J50000D01*
G01*
G37*
G36*
G01*
X93970000Y-60690000D02*
X93970000Y-59690000D01*
G75*
G02*
X94020000Y-59640000I50000J0D01*
G01*
X96520000Y-59640000D01*
G75*
G02*
X96570000Y-59690000I0J-50000D01*
G01*
X96570000Y-60690000D01*
G75*
G02*
X96520000Y-60740000I-50000J0D01*
G01*
X94020000Y-60740000D01*
G75*
G02*
X93970000Y-60690000I0J50000D01*
G01*
G37*
G36*
G01*
X93970000Y-62690000D02*
X93970000Y-61690000D01*
G75*
G02*
X94020000Y-61640000I50000J0D01*
G01*
X96520000Y-61640000D01*
G75*
G02*
X96570000Y-61690000I0J-50000D01*
G01*
X96570000Y-62690000D01*
G75*
G02*
X96520000Y-62740000I-50000J0D01*
G01*
X94020000Y-62740000D01*
G75*
G02*
X93970000Y-62690000I0J50000D01*
G01*
G37*
G36*
G01*
X93970000Y-64690000D02*
X93970000Y-63690000D01*
G75*
G02*
X94020000Y-63640000I50000J0D01*
G01*
X96520000Y-63640000D01*
G75*
G02*
X96570000Y-63690000I0J-50000D01*
G01*
X96570000Y-64690000D01*
G75*
G02*
X96520000Y-64740000I-50000J0D01*
G01*
X94020000Y-64740000D01*
G75*
G02*
X93970000Y-64690000I0J50000D01*
G01*
G37*
G36*
G01*
X93970000Y-66690000D02*
X93970000Y-65690000D01*
G75*
G02*
X94020000Y-65640000I50000J0D01*
G01*
X96520000Y-65640000D01*
G75*
G02*
X96570000Y-65690000I0J-50000D01*
G01*
X96570000Y-66690000D01*
G75*
G02*
X96520000Y-66740000I-50000J0D01*
G01*
X94020000Y-66740000D01*
G75*
G02*
X93970000Y-66690000I0J50000D01*
G01*
G37*
G36*
G01*
X93970000Y-68690000D02*
X93970000Y-67690000D01*
G75*
G02*
X94020000Y-67640000I50000J0D01*
G01*
X96520000Y-67640000D01*
G75*
G02*
X96570000Y-67690000I0J-50000D01*
G01*
X96570000Y-68690000D01*
G75*
G02*
X96520000Y-68740000I-50000J0D01*
G01*
X94020000Y-68740000D01*
G75*
G02*
X93970000Y-68690000I0J50000D01*
G01*
G37*
G36*
G01*
X93970000Y-70690000D02*
X93970000Y-69690000D01*
G75*
G02*
X94020000Y-69640000I50000J0D01*
G01*
X96520000Y-69640000D01*
G75*
G02*
X96570000Y-69690000I0J-50000D01*
G01*
X96570000Y-70690000D01*
G75*
G02*
X96520000Y-70740000I-50000J0D01*
G01*
X94020000Y-70740000D01*
G75*
G02*
X93970000Y-70690000I0J50000D01*
G01*
G37*
G36*
G01*
X97320000Y-72590000D02*
X97320000Y-70790000D01*
G75*
G02*
X97370000Y-70740000I50000J0D01*
G01*
X98370000Y-70740000D01*
G75*
G02*
X98420000Y-70790000I0J-50000D01*
G01*
X98420000Y-72590000D01*
G75*
G02*
X98370000Y-72640000I-50000J0D01*
G01*
X97370000Y-72640000D01*
G75*
G02*
X97320000Y-72590000I0J50000D01*
G01*
G37*
G36*
G01*
X99320000Y-72590000D02*
X99320000Y-70790000D01*
G75*
G02*
X99370000Y-70740000I50000J0D01*
G01*
X100370000Y-70740000D01*
G75*
G02*
X100420000Y-70790000I0J-50000D01*
G01*
X100420000Y-72590000D01*
G75*
G02*
X100370000Y-72640000I-50000J0D01*
G01*
X99370000Y-72640000D01*
G75*
G02*
X99320000Y-72590000I0J50000D01*
G01*
G37*
G36*
G01*
X101320000Y-72590000D02*
X101320000Y-70790000D01*
G75*
G02*
X101370000Y-70740000I50000J0D01*
G01*
X102370000Y-70740000D01*
G75*
G02*
X102420000Y-70790000I0J-50000D01*
G01*
X102420000Y-72590000D01*
G75*
G02*
X102370000Y-72640000I-50000J0D01*
G01*
X101370000Y-72640000D01*
G75*
G02*
X101320000Y-72590000I0J50000D01*
G01*
G37*
G36*
G01*
X103320000Y-72590000D02*
X103320000Y-70790000D01*
G75*
G02*
X103370000Y-70740000I50000J0D01*
G01*
X104370000Y-70740000D01*
G75*
G02*
X104420000Y-70790000I0J-50000D01*
G01*
X104420000Y-72590000D01*
G75*
G02*
X104370000Y-72640000I-50000J0D01*
G01*
X103370000Y-72640000D01*
G75*
G02*
X103320000Y-72590000I0J50000D01*
G01*
G37*
G36*
G01*
X105320000Y-72590000D02*
X105320000Y-70790000D01*
G75*
G02*
X105370000Y-70740000I50000J0D01*
G01*
X106370000Y-70740000D01*
G75*
G02*
X106420000Y-70790000I0J-50000D01*
G01*
X106420000Y-72590000D01*
G75*
G02*
X106370000Y-72640000I-50000J0D01*
G01*
X105370000Y-72640000D01*
G75*
G02*
X105320000Y-72590000I0J50000D01*
G01*
G37*
G36*
G01*
X107320000Y-72590000D02*
X107320000Y-70790000D01*
G75*
G02*
X107370000Y-70740000I50000J0D01*
G01*
X108370000Y-70740000D01*
G75*
G02*
X108420000Y-70790000I0J-50000D01*
G01*
X108420000Y-72590000D01*
G75*
G02*
X108370000Y-72640000I-50000J0D01*
G01*
X107370000Y-72640000D01*
G75*
G02*
X107320000Y-72590000I0J50000D01*
G01*
G37*
G36*
G01*
X109170000Y-70690000D02*
X109170000Y-69690000D01*
G75*
G02*
X109220000Y-69640000I50000J0D01*
G01*
X111720000Y-69640000D01*
G75*
G02*
X111770000Y-69690000I0J-50000D01*
G01*
X111770000Y-70690000D01*
G75*
G02*
X111720000Y-70740000I-50000J0D01*
G01*
X109220000Y-70740000D01*
G75*
G02*
X109170000Y-70690000I0J50000D01*
G01*
G37*
G36*
G01*
X109170000Y-68690000D02*
X109170000Y-67690000D01*
G75*
G02*
X109220000Y-67640000I50000J0D01*
G01*
X111720000Y-67640000D01*
G75*
G02*
X111770000Y-67690000I0J-50000D01*
G01*
X111770000Y-68690000D01*
G75*
G02*
X111720000Y-68740000I-50000J0D01*
G01*
X109220000Y-68740000D01*
G75*
G02*
X109170000Y-68690000I0J50000D01*
G01*
G37*
G36*
G01*
X109170000Y-66690000D02*
X109170000Y-65690000D01*
G75*
G02*
X109220000Y-65640000I50000J0D01*
G01*
X111720000Y-65640000D01*
G75*
G02*
X111770000Y-65690000I0J-50000D01*
G01*
X111770000Y-66690000D01*
G75*
G02*
X111720000Y-66740000I-50000J0D01*
G01*
X109220000Y-66740000D01*
G75*
G02*
X109170000Y-66690000I0J50000D01*
G01*
G37*
G36*
G01*
X109170000Y-64690000D02*
X109170000Y-63690000D01*
G75*
G02*
X109220000Y-63640000I50000J0D01*
G01*
X111720000Y-63640000D01*
G75*
G02*
X111770000Y-63690000I0J-50000D01*
G01*
X111770000Y-64690000D01*
G75*
G02*
X111720000Y-64740000I-50000J0D01*
G01*
X109220000Y-64740000D01*
G75*
G02*
X109170000Y-64690000I0J50000D01*
G01*
G37*
G36*
G01*
X109170000Y-62690000D02*
X109170000Y-61690000D01*
G75*
G02*
X109220000Y-61640000I50000J0D01*
G01*
X111720000Y-61640000D01*
G75*
G02*
X111770000Y-61690000I0J-50000D01*
G01*
X111770000Y-62690000D01*
G75*
G02*
X111720000Y-62740000I-50000J0D01*
G01*
X109220000Y-62740000D01*
G75*
G02*
X109170000Y-62690000I0J50000D01*
G01*
G37*
G36*
G01*
X109170000Y-60690000D02*
X109170000Y-59690000D01*
G75*
G02*
X109220000Y-59640000I50000J0D01*
G01*
X111720000Y-59640000D01*
G75*
G02*
X111770000Y-59690000I0J-50000D01*
G01*
X111770000Y-60690000D01*
G75*
G02*
X111720000Y-60740000I-50000J0D01*
G01*
X109220000Y-60740000D01*
G75*
G02*
X109170000Y-60690000I0J50000D01*
G01*
G37*
G36*
G01*
X109170000Y-58690000D02*
X109170000Y-57690000D01*
G75*
G02*
X109220000Y-57640000I50000J0D01*
G01*
X111720000Y-57640000D01*
G75*
G02*
X111770000Y-57690000I0J-50000D01*
G01*
X111770000Y-58690000D01*
G75*
G02*
X111720000Y-58740000I-50000J0D01*
G01*
X109220000Y-58740000D01*
G75*
G02*
X109170000Y-58690000I0J50000D01*
G01*
G37*
G36*
G01*
X109170000Y-56690000D02*
X109170000Y-55690000D01*
G75*
G02*
X109220000Y-55640000I50000J0D01*
G01*
X111720000Y-55640000D01*
G75*
G02*
X111770000Y-55690000I0J-50000D01*
G01*
X111770000Y-56690000D01*
G75*
G02*
X111720000Y-56740000I-50000J0D01*
G01*
X109220000Y-56740000D01*
G75*
G02*
X109170000Y-56690000I0J50000D01*
G01*
G37*
%TD*%
D10*
%TO.C,J2*%
X89500000Y-54930000D03*
X89500000Y-57470000D03*
X89500000Y-60010000D03*
X89500000Y-62550000D03*
X89500000Y-65090000D03*
X89500000Y-67630000D03*
X89500000Y-70170000D03*
X89500000Y-72710000D03*
X89500000Y-75250000D03*
G36*
G01*
X90400000Y-76940000D02*
X90400000Y-78640000D01*
G75*
G02*
X90350000Y-78690000I-50000J0D01*
G01*
X88650000Y-78690000D01*
G75*
G02*
X88600000Y-78640000I0J50000D01*
G01*
X88600000Y-76940000D01*
G75*
G02*
X88650000Y-76890000I50000J0D01*
G01*
X90350000Y-76890000D01*
G75*
G02*
X90400000Y-76940000I0J-50000D01*
G01*
G37*
%TD*%
%TO.C,J1*%
G36*
G01*
X182510000Y-63920000D02*
X182510000Y-65620000D01*
G75*
G02*
X182460000Y-65670000I-50000J0D01*
G01*
X180760000Y-65670000D01*
G75*
G02*
X180710000Y-65620000I0J50000D01*
G01*
X180710000Y-63920000D01*
G75*
G02*
X180760000Y-63870000I50000J0D01*
G01*
X182460000Y-63870000D01*
G75*
G02*
X182510000Y-63920000I0J-50000D01*
G01*
G37*
X181610000Y-62230000D03*
%TD*%
%TO.C,U2*%
G36*
G01*
X104970000Y-81910000D02*
X104970000Y-78110000D01*
G75*
G02*
X105020000Y-78060000I50000J0D01*
G01*
X107020000Y-78060000D01*
G75*
G02*
X107070000Y-78110000I0J-50000D01*
G01*
X107070000Y-81910000D01*
G75*
G02*
X107020000Y-81960000I-50000J0D01*
G01*
X105020000Y-81960000D01*
G75*
G02*
X104970000Y-81910000I0J50000D01*
G01*
G37*
G36*
G01*
X98670000Y-80760000D02*
X98670000Y-79260000D01*
G75*
G02*
X98720000Y-79210000I50000J0D01*
G01*
X100720000Y-79210000D01*
G75*
G02*
X100770000Y-79260000I0J-50000D01*
G01*
X100770000Y-80760000D01*
G75*
G02*
X100720000Y-80810000I-50000J0D01*
G01*
X98720000Y-80810000D01*
G75*
G02*
X98670000Y-80760000I0J50000D01*
G01*
G37*
G36*
G01*
X98670000Y-83060000D02*
X98670000Y-81560000D01*
G75*
G02*
X98720000Y-81510000I50000J0D01*
G01*
X100720000Y-81510000D01*
G75*
G02*
X100770000Y-81560000I0J-50000D01*
G01*
X100770000Y-83060000D01*
G75*
G02*
X100720000Y-83110000I-50000J0D01*
G01*
X98720000Y-83110000D01*
G75*
G02*
X98670000Y-83060000I0J50000D01*
G01*
G37*
G36*
G01*
X98670000Y-78460000D02*
X98670000Y-76960000D01*
G75*
G02*
X98720000Y-76910000I50000J0D01*
G01*
X100720000Y-76910000D01*
G75*
G02*
X100770000Y-76960000I0J-50000D01*
G01*
X100770000Y-78460000D01*
G75*
G02*
X100720000Y-78510000I-50000J0D01*
G01*
X98720000Y-78510000D01*
G75*
G02*
X98670000Y-78460000I0J50000D01*
G01*
G37*
%TD*%
M02*
