%TF.GenerationSoftware,KiCad,Pcbnew,(5.1.12-1-10_14)*%
%TF.CreationDate,2022-08-29T01:00:24+02:00*%
%TF.ProjectId,esp-wireless-charging,6573702d-7769-4726-956c-6573732d6368,rev?*%
%TF.SameCoordinates,Original*%
%TF.FileFunction,Copper,L1,Top*%
%TF.FilePolarity,Positive*%
%FSLAX46Y46*%
G04 Gerber Fmt 4.6, Leading zero omitted, Abs format (unit mm)*
G04 Created by KiCad (PCBNEW (5.1.12-1-10_14)) date 2022-08-29 01:00:24*
%MOMM*%
%LPD*%
G01*
G04 APERTURE LIST*
%TA.AperFunction,SMDPad,CuDef*%
%ADD10R,2.500000X1.000000*%
%TD*%
%TA.AperFunction,SMDPad,CuDef*%
%ADD11R,1.000000X1.800000*%
%TD*%
%TA.AperFunction,ComponentPad*%
%ADD12O,1.700000X1.700000*%
%TD*%
%TA.AperFunction,ComponentPad*%
%ADD13R,1.700000X1.700000*%
%TD*%
%TA.AperFunction,SMDPad,CuDef*%
%ADD14R,2.000000X3.800000*%
%TD*%
%TA.AperFunction,SMDPad,CuDef*%
%ADD15R,2.000000X1.500000*%
%TD*%
%TA.AperFunction,ViaPad*%
%ADD16C,0.800000*%
%TD*%
%TA.AperFunction,Conductor*%
%ADD17C,0.250000*%
%TD*%
G04 APERTURE END LIST*
D10*
%TO.P,U1,1*%
%TO.N,Net-(U1-Pad1)*%
X95270000Y-56190000D03*
%TO.P,U1,2*%
%TO.N,Net-(J2-Pad9)*%
X95270000Y-58190000D03*
%TO.P,U1,3*%
%TO.N,Net-(J2-Pad10)*%
X95270000Y-60190000D03*
%TO.P,U1,4*%
%TO.N,Net-(J2-Pad8)*%
X95270000Y-62190000D03*
%TO.P,U1,5*%
%TO.N,Net-(J2-Pad7)*%
X95270000Y-64190000D03*
%TO.P,U1,6*%
%TO.N,Net-(J2-Pad6)*%
X95270000Y-66190000D03*
%TO.P,U1,7*%
%TO.N,Net-(J2-Pad5)*%
X95270000Y-68190000D03*
%TO.P,U1,8*%
%TO.N,Net-(J2-Pad10)*%
X95270000Y-70190000D03*
D11*
%TO.P,U1,9*%
%TO.N,Net-(J2-Pad4)*%
X97870000Y-71690000D03*
%TO.P,U1,10*%
%TO.N,Net-(J2-Pad3)*%
X99870000Y-71690000D03*
%TO.P,U1,11*%
%TO.N,Net-(U1-Pad11)*%
X101870000Y-71690000D03*
%TO.P,U1,12*%
%TO.N,Net-(U1-Pad12)*%
X103870000Y-71690000D03*
%TO.P,U1,13*%
%TO.N,Net-(U1-Pad13)*%
X105870000Y-71690000D03*
%TO.P,U1,14*%
%TO.N,Net-(U1-Pad14)*%
X107870000Y-71690000D03*
D10*
%TO.P,U1,15*%
%TO.N,Net-(J1-Pad2)*%
X110470000Y-70190000D03*
%TO.P,U1,16*%
X110470000Y-68190000D03*
%TO.P,U1,17*%
%TO.N,Net-(U1-Pad17)*%
X110470000Y-66190000D03*
%TO.P,U1,18*%
%TO.N,Net-(J2-Pad2)*%
X110470000Y-64190000D03*
%TO.P,U1,19*%
%TO.N,Net-(U1-Pad19)*%
X110470000Y-62190000D03*
%TO.P,U1,20*%
%TO.N,Net-(U1-Pad20)*%
X110470000Y-60190000D03*
%TO.P,U1,21*%
%TO.N,Net-(U1-Pad21)*%
X110470000Y-58190000D03*
%TO.P,U1,22*%
%TO.N,Net-(U1-Pad22)*%
X110470000Y-56190000D03*
%TD*%
D12*
%TO.P,J2,10*%
%TO.N,Net-(J2-Pad10)*%
X89500000Y-54930000D03*
%TO.P,J2,9*%
%TO.N,Net-(J2-Pad9)*%
X89500000Y-57470000D03*
%TO.P,J2,8*%
%TO.N,Net-(J2-Pad8)*%
X89500000Y-60010000D03*
%TO.P,J2,7*%
%TO.N,Net-(J2-Pad7)*%
X89500000Y-62550000D03*
%TO.P,J2,6*%
%TO.N,Net-(J2-Pad6)*%
X89500000Y-65090000D03*
%TO.P,J2,5*%
%TO.N,Net-(J2-Pad5)*%
X89500000Y-67630000D03*
%TO.P,J2,4*%
%TO.N,Net-(J2-Pad4)*%
X89500000Y-70170000D03*
%TO.P,J2,3*%
%TO.N,Net-(J2-Pad3)*%
X89500000Y-72710000D03*
%TO.P,J2,2*%
%TO.N,Net-(J2-Pad2)*%
X89500000Y-75250000D03*
D13*
%TO.P,J2,1*%
%TO.N,Net-(J1-Pad2)*%
X89500000Y-77790000D03*
%TD*%
%TO.P,J1,1*%
%TO.N,Net-(J1-Pad1)*%
X181610000Y-64770000D03*
D12*
%TO.P,J1,2*%
%TO.N,Net-(J1-Pad2)*%
X181610000Y-62230000D03*
%TD*%
D14*
%TO.P,U2,2*%
%TO.N,Net-(J2-Pad10)*%
X106020000Y-80010000D03*
D15*
X99720000Y-80010000D03*
%TO.P,U2,3*%
%TO.N,Net-(J1-Pad1)*%
X99720000Y-82310000D03*
%TO.P,U2,1*%
%TO.N,Net-(J1-Pad2)*%
X99720000Y-77710000D03*
%TD*%
D16*
%TO.N,Net-(J1-Pad2)*%
X93750000Y-77750000D03*
X97250000Y-77250000D03*
%TO.N,Net-(J2-Pad4)*%
X94250000Y-73500000D03*
X96500000Y-73500000D03*
%TO.N,Net-(J2-Pad3)*%
X98500000Y-74500000D03*
%TO.N,Net-(J2-Pad2)*%
X107750000Y-65000000D03*
%TD*%
D17*
%TO.N,Net-(J1-Pad1)*%
X180434999Y-63594999D02*
X181610000Y-64770000D01*
X180340000Y-59690000D02*
X180434999Y-63594999D01*
X181610000Y-59690000D02*
X180340000Y-59690000D01*
X186407990Y-84102010D02*
X186407990Y-63851580D01*
X183611409Y-61054999D02*
X181610000Y-59690000D01*
X186407990Y-63851580D02*
X183611409Y-61054999D01*
X184150000Y-86360000D02*
X186407990Y-84102010D01*
X102870000Y-86360000D02*
X184150000Y-86360000D01*
X99720000Y-83210000D02*
X102870000Y-86360000D01*
X99720000Y-82310000D02*
X99720000Y-83210000D01*
%TO.N,Net-(J1-Pad2)*%
X109220000Y-72390000D02*
X110470000Y-71140000D01*
X110470000Y-71140000D02*
X110470000Y-70190000D01*
X110470000Y-68190000D02*
X110470000Y-70190000D01*
X109220000Y-73660000D02*
X109220000Y-72390000D01*
X110490000Y-85090000D02*
X109220000Y-83820000D01*
X182880000Y-85090000D02*
X110490000Y-85090000D01*
X184150000Y-83820000D02*
X182880000Y-85090000D01*
X184150000Y-63500000D02*
X184150000Y-83820000D01*
X182880000Y-62230000D02*
X184150000Y-63500000D01*
X181610000Y-62230000D02*
X182880000Y-62230000D01*
X93710000Y-77790000D02*
X93750000Y-77750000D01*
X89500000Y-77790000D02*
X93710000Y-77790000D01*
X97710000Y-77710000D02*
X99720000Y-77710000D01*
X97250000Y-77250000D02*
X97710000Y-77710000D01*
X99720000Y-77710000D02*
X102540000Y-77710000D01*
X104970000Y-75280000D02*
X109220000Y-75280000D01*
X102540000Y-77710000D02*
X104970000Y-75280000D01*
X109220000Y-75280000D02*
X109220000Y-73660000D01*
X109220000Y-83820000D02*
X109220000Y-75280000D01*
%TO.N,Net-(J2-Pad9)*%
X89500000Y-57470000D02*
X91970000Y-57470000D01*
X92690000Y-58190000D02*
X95270000Y-58190000D01*
X91970000Y-57470000D02*
X92690000Y-58190000D01*
%TO.N,Net-(J2-Pad8)*%
X93690000Y-62190000D02*
X95270000Y-62190000D01*
X91510000Y-60010000D02*
X93690000Y-62190000D01*
X89500000Y-60010000D02*
X91510000Y-60010000D01*
%TO.N,Net-(J2-Pad7)*%
X89500000Y-62550000D02*
X91550000Y-62550000D01*
X93190000Y-64190000D02*
X95270000Y-64190000D01*
X91550000Y-62550000D02*
X93190000Y-64190000D01*
%TO.N,Net-(J2-Pad6)*%
X89500000Y-65090000D02*
X91340000Y-65090000D01*
X92440000Y-66190000D02*
X95270000Y-66190000D01*
X91340000Y-65090000D02*
X92440000Y-66190000D01*
%TO.N,Net-(J2-Pad5)*%
X89500000Y-67630000D02*
X91630000Y-67630000D01*
X92190000Y-68190000D02*
X95270000Y-68190000D01*
X91630000Y-67630000D02*
X92190000Y-68190000D01*
%TO.N,Net-(J2-Pad4)*%
X89500000Y-70170000D02*
X91420000Y-70170000D01*
X91420000Y-70170000D02*
X93000000Y-71750000D01*
X93000000Y-72250000D02*
X94250000Y-73500000D01*
X93000000Y-71750000D02*
X93000000Y-72250000D01*
X96500000Y-73060000D02*
X97870000Y-71690000D01*
X96500000Y-73500000D02*
X96500000Y-73060000D01*
%TO.N,Net-(J2-Pad3)*%
X99870000Y-73130000D02*
X99870000Y-71690000D01*
X98500000Y-74500000D02*
X99870000Y-73130000D01*
%TO.N,Net-(J2-Pad2)*%
X109660000Y-65000000D02*
X110470000Y-64190000D01*
X107750000Y-65000000D02*
X109660000Y-65000000D01*
%TO.N,Net-(J2-Pad10)*%
X99720000Y-80010000D02*
X97790000Y-80010000D01*
X95270000Y-77490000D02*
X95270000Y-70190000D01*
X89500000Y-54930000D02*
X87320000Y-54930000D01*
X86500000Y-55750000D02*
X86500000Y-82500000D01*
X87320000Y-54930000D02*
X86500000Y-55750000D01*
X86500000Y-82500000D02*
X87250000Y-83250000D01*
X87250000Y-83250000D02*
X95250000Y-83250000D01*
X96770000Y-70190000D02*
X95270000Y-70190000D01*
X95250000Y-83250000D02*
X97750000Y-80750000D01*
X97750000Y-80750000D02*
X97750000Y-79970000D01*
X97750000Y-79970000D02*
X97515000Y-79735000D01*
X97515000Y-79735000D02*
X95270000Y-77490000D01*
X97790000Y-80010000D02*
X97515000Y-79735000D01*
X89500000Y-54930000D02*
X97680000Y-54930000D01*
X97680000Y-54930000D02*
X98250000Y-55500000D01*
X98250000Y-55500000D02*
X98250000Y-58630000D01*
X96690000Y-60190000D02*
X96770000Y-60190000D01*
X98250000Y-58630000D02*
X96690000Y-60190000D01*
X95270000Y-60190000D02*
X96690000Y-60190000D01*
%TD*%
M02*
