<?xml version="1.0" encoding="utf-8"?>
<!-- Generator: Adobe Illustrator 16.0.0, SVG Export Plug-In . SVG Version: 6.00 Build 0)  -->
<!DOCTYPE svg PUBLIC "-//W3C//DTD SVG 1.1//EN" "http://www.w3.org/Graphics/SVG/1.1/DTD/svg11.dtd">
<svg version="1.1" id="Layer_1" xmlns="http://www.w3.org/2000/svg" xmlns:xlink="http://www.w3.org/1999/xlink" x="0px" y="0px"
	 width="281.013px" height="117.921px" viewBox="0 0 281.013 117.921" enable-background="new 0 0 281.013 117.921"
	 xml:space="preserve">
<path fill="none" stroke="#010101" stroke-miterlimit="10" d="M281.013,105.251v7.167c0,0-1,4.334-5.834,4.334
	c-4.833,0-270.349,1.168-270.349,1.168S0,118.086,0,112.42c0-5.082,0-32.138,0-37.67c0-0.637,0-1.004,0-1.004V0h53.438l0.047,73.746
	l0,0l0.016,6.477v23.528c0,0,1.5,4,6.5,4s204.512,0,204.512,0s4-1.5,4-4s0-32.501,0-32.501h-12.776v27.443h-55.28V68.375h-11.338
	l0,0c0,15.657-12.694,26.349-28.351,26.349h-60.633c-15.655,0-28.347-12.69-28.347-28.347V38.03
	c0-15.655,12.691-28.346,28.347-28.346h60.633c15.657,0,28.351,10.691,28.351,26.346l0,0h11.338V5.715h55.28v29.533h25.276V105.251z
	"/>
</svg>
